<svg width="34" height="34" viewBox="0 0 34 34" fill="none" xmlns="http://www.w3.org/2000/svg">
<rect x="1" y="1" width="32" height="32" rx="6" fill="#E65527" fill-opacity="0.1"/>
<path d="M21.1673 17.0007C21.1673 19.3018 19.3018 21.1673 17.0007 21.1673C14.6995 21.1673 12.834 19.3018 12.834 17.0007C12.834 14.6995 14.6995 12.834 17.0007 12.834C19.3018 12.834 21.1673 14.6995 21.1673 17.0007Z" fill="#E65527" stroke="#E65527" stroke-width="1.5" stroke-linecap="square"/>
<path d="M16.9962 9.5H17.0038M16.9968 24.5H17.0043M22.299 11.6967H22.3065M11.6951 22.3033H11.7026M11.6951 11.6971H11.7026M22.2985 22.3037H22.306M24.4925 17.0005H24.5M9.5 17.0005H9.50748" stroke="#E65527" stroke-width="2" stroke-linecap="round" stroke-linejoin="round"/>
<rect x="1" y="1" width="32" height="32" rx="6" stroke="#E65527" stroke-opacity="0.1" stroke-width="2"/>
</svg>
