<svg width="20" height="22" viewBox="0 0 20 22" fill="none" xmlns="http://www.w3.org/2000/svg">
    <path fill-rule="evenodd" clip-rule="evenodd" d="M8.14161 19.1059C8.65961 19.6829 9.32461 19.9999 10.0146 19.9999H10.0156C10.7086 19.9999 11.3766 19.6829 11.8956 19.1049C12.1736 18.7979 12.6476 18.7729 12.9546 19.0499C13.2626 19.3269 13.2876 19.8019 13.0106 20.1089C12.2026 21.0059 11.1396 21.4999 10.0156 21.4999H10.0136C8.89261 21.4989 7.83161 21.0049 7.02661 20.1079C6.74961 19.8009 6.77461 19.3259 7.08261 19.0499C7.39061 18.7719 7.86461 18.7969 8.14161 19.1059ZM10.0644 -0.00012207C14.5094 -0.00012207 17.4954 3.46188 17.4954 6.69488C17.4954 8.35788 17.9184 9.06288 18.3674 9.81088C18.8114 10.5489 19.3144 11.3869 19.3144 12.9709C18.9654 17.0179 14.7404 17.3479 10.0644 17.3479C5.38841 17.3479 1.16241 17.0179 0.817396 13.0349C0.814409 11.3869 1.31741 10.5489 1.76141 9.81088L1.91815 9.54704C2.30408 8.88374 2.63341 8.16224 2.63341 6.69488C2.63341 3.46188 5.61941 -0.00012207 10.0644 -0.00012207ZM10.0644 1.49988C6.56941 1.49988 4.13341 4.23788 4.13341 6.69488C4.13341 8.77388 3.55641 9.73488 3.04641 10.5829C2.63741 11.2639 2.31441 11.8019 2.31441 12.9709C2.48141 14.8569 3.72641 15.8479 10.0644 15.8479C16.3674 15.8479 17.6514 14.8129 17.8174 12.9059C17.8144 11.8019 17.4914 11.2639 17.0824 10.5829C16.5724 9.73488 15.9954 8.77388 15.9954 6.69488C15.9954 4.23788 13.5594 1.49988 10.0644 1.49988Z" fill="#1E2875"/>
    </svg>
    