<svg width="36" height="37" viewBox="0 0 36 37" fill="none" xmlns="http://www.w3.org/2000/svg">
<rect y="0.5" width="36" height="36" rx="6" fill="#101010" fill-opacity="0.05"/>
<path d="M23.2244 26.5568C22.15 26.7077 20.749 26.7077 18.8702 26.7077H17.1285C13.4339 26.7077 11.5866 26.7077 10.4388 25.5599C9.29102 24.4122 9.29102 22.5648 9.29102 18.8702V17.1285C9.29102 13.4339 9.29102 11.5866 10.4388 10.4388C11.5866 9.29102 13.4339 9.29102 17.1285 9.29102H18.8702C22.5648 9.29102 24.4122 9.29102 25.5599 10.4388C26.7077 11.5866 26.7077 13.4339 26.7077 17.1285V18.8702C26.7077 19.9777 26.7077 20.9192 26.6768 21.7257C26.6519 22.3719 26.6396 22.6952 26.3948 22.8159C26.1501 22.9366 25.8764 22.7429 25.3288 22.3555L24.0952 21.4827" stroke="#101010" stroke-width="1.5" stroke-linecap="round" stroke-linejoin="round"/>
<path d="M20.7005 18.3612C20.5385 18.9357 19.7728 19.3417 18.2416 20.1537C16.7613 20.9385 16.0212 21.3311 15.4247 21.1733C15.1781 21.108 14.9535 20.9842 14.7723 20.8135C14.334 20.4008 14.334 19.6003 14.334 17.9993C14.334 16.3984 14.334 15.5978 14.7723 15.1851C14.9535 15.0145 15.1781 14.8906 15.4247 14.8254C16.0212 14.6677 16.7613 15.0601 18.2416 15.845C19.7728 16.657 20.5385 17.063 20.7005 17.6374C20.7673 17.8746 20.7673 18.1241 20.7005 18.3612Z" stroke="#101010" stroke-width="1.5" stroke-linejoin="round"/>
</svg>
