<svg width="34" height="35" viewBox="0 0 34 35" fill="none" xmlns="http://www.w3.org/2000/svg">
<rect y="0.5" width="34" height="34" rx="6" fill="#101010" fill-opacity="0.05"/>
<path d="M24.6405 9.85839C24.394 9.60899 24.0875 9.42736 23.7504 9.33105C23.4133 9.23473 23.057 9.22699 22.7161 9.30856L11.7195 11.6247C11.0862 11.7116 10.4898 11.9735 9.99734 12.381C9.50488 12.7885 9.13597 13.3254 8.93217 13.9313C8.72836 14.5371 8.69775 15.1878 8.84378 15.8101C8.98981 16.4324 9.30668 17.0016 9.75871 17.4536L10.9395 18.6336C11.0034 18.6975 11.054 18.7734 11.0886 18.8569C11.1232 18.9404 11.1409 19.0299 11.1408 19.1202V21.2975C11.1424 21.6037 11.2128 21.9055 11.347 22.1807L11.3415 22.1855L11.3594 22.2034C11.5608 22.6083 11.8897 22.9357 12.2955 23.1353L12.3133 23.1532L12.3182 23.1477C12.5933 23.2819 12.8952 23.3524 13.2013 23.3539H15.3786C15.5608 23.3537 15.7356 23.4259 15.8645 23.5546L17.0446 24.7346C17.3611 25.0547 17.7378 25.3089 18.153 25.4826C18.5682 25.6564 19.0137 25.7462 19.4638 25.747C19.8389 25.7465 20.2115 25.6853 20.5669 25.5656C21.1672 25.3684 21.7005 25.0075 22.1066 24.5234C22.5127 24.0394 22.7754 23.4515 22.8652 22.8261L25.1848 11.8055C25.2706 11.4616 25.2655 11.1013 25.1701 10.7599C25.0747 10.4186 24.8922 10.1079 24.6405 9.85839ZM11.9127 17.6632L10.7312 16.4831C10.4561 16.2146 10.2633 15.8733 10.1754 15.499C10.0875 15.1248 10.1082 14.7333 10.235 14.3704C10.3579 13.9981 10.5852 13.669 10.8898 13.4221C11.1944 13.1753 11.5635 13.0211 11.9532 12.978L22.8405 10.6859L12.514 21.0137V19.1202C12.5151 18.8497 12.4625 18.5816 12.3592 18.3315C12.256 18.0814 12.1042 17.8542 11.9127 17.6632ZM21.5147 22.591C21.4619 22.9706 21.3044 23.328 21.0598 23.6231C20.8152 23.9181 20.4932 24.1391 20.1299 24.2613C19.7666 24.3835 19.3765 24.4021 19.0033 24.3149C18.6301 24.2277 18.2886 24.0382 18.0171 23.7676L16.835 22.5855C16.6442 22.3936 16.4172 22.2415 16.1672 22.1379C15.9172 22.0344 15.6492 21.9814 15.3786 21.9821H13.4852L23.813 11.6577L21.5147 22.591Z" fill="#101010"/>
</svg>
