<svg width="38" height="39" viewBox="0 0 38 39" fill="none" xmlns="http://www.w3.org/2000/svg">
<rect x="1" y="1.5" width="36" height="36" rx="6" fill="#E65527" fill-opacity="0.1"/>
<path d="M21.25 23.584C20.5171 24.1545 19.5544 24.5007 18.5 24.5007C17.4457 24.5007 16.4829 24.1545 15.75 23.584" stroke="#E65527" stroke-width="1.5"/>
<path d="M9.65609 20.113C9.33249 18.0072 9.17069 16.9543 9.56881 16.0209C9.96692 15.0875 10.8502 14.4489 12.6167 13.1716L13.9366 12.2173C16.1341 10.6284 17.2328 9.83398 18.5007 9.83398C19.7685 9.83398 20.8672 10.6284 23.0647 12.2173L24.3846 13.1716C26.1512 14.4489 27.0344 15.0875 27.4325 16.0209C27.8306 16.9543 27.6688 18.0072 27.3452 20.113L27.0693 21.9087C26.6105 24.8938 26.3811 26.3864 25.3106 27.2769C24.24 28.1673 22.6749 28.1673 19.5446 28.1673H17.4568C14.3265 28.1673 12.7613 28.1673 11.6907 27.2769C10.6202 26.3864 10.3908 24.8938 9.93205 21.9087L9.65609 20.113Z" stroke="#E65527" stroke-width="1.5"/>
<rect x="1" y="1.5" width="36" height="36" rx="6" stroke="#E65527" stroke-opacity="0.1" stroke-width="2"/>
</svg>
