<svg width="36" height="37" viewBox="0 0 36 37" fill="none" xmlns="http://www.w3.org/2000/svg">
<rect y="0.5" width="36" height="36" rx="6" fill="#101010" fill-opacity="0.05"/>
<path d="M23.2708 17.1257C25.4224 17.1257 27.1667 15.3814 27.1667 13.2298C27.1667 11.0782 25.4224 9.33398 23.2708 9.33398C21.1192 9.33398 19.375 11.0782 19.375 13.2298C19.375 15.3814 21.1192 17.1257 23.2708 17.1257Z" stroke="#101010" stroke-width="1.5" stroke-linecap="round" stroke-linejoin="round"/>
<path d="M12.7298 17.1257C14.8814 17.1257 16.6257 15.3814 16.6257 13.2298C16.6257 11.0782 14.8814 9.33398 12.7298 9.33398C10.5782 9.33398 8.83398 11.0782 8.83398 13.2298C8.83398 15.3814 10.5782 17.1257 12.7298 17.1257Z" stroke="#101010" stroke-width="1.5" stroke-linecap="round" stroke-linejoin="round"/>
<path d="M23.2708 27.6667C25.4224 27.6667 27.1667 25.9224 27.1667 23.7708C27.1667 21.6192 25.4224 19.875 23.2708 19.875C21.1192 19.875 19.375 21.6192 19.375 23.7708C19.375 25.9224 21.1192 27.6667 23.2708 27.6667Z" stroke="#101010" stroke-width="1.5" stroke-linecap="round" stroke-linejoin="round"/>
<path d="M12.7298 27.6667C14.8814 27.6667 16.6257 25.9224 16.6257 23.7708C16.6257 21.6192 14.8814 19.875 12.7298 19.875C10.5782 19.875 8.83398 21.6192 8.83398 23.7708C8.83398 25.9224 10.5782 27.6667 12.7298 27.6667Z" stroke="#101010" stroke-width="1.5" stroke-linecap="round" stroke-linejoin="round"/>
</svg>
