<svg width="35" height="34" viewBox="0 0 35 34" fill="none" xmlns="http://www.w3.org/2000/svg">
<rect x="1.5" y="1" width="32" height="32" rx="6" fill="#E65527" fill-opacity="0.1"/>
<path d="M24.5 23L20.8333 19.3333M22.3889 15.4444C22.3889 16.1594 22.2481 16.8674 21.9745 17.5279C21.7008 18.1885 21.2998 18.7887 20.7942 19.2942C20.2887 19.7998 19.6885 20.2008 19.0279 20.4745C18.3674 20.7481 17.6594 20.8889 16.9444 20.8889C16.2295 20.8889 15.5215 20.7481 14.8609 20.4745C14.2004 20.2008 13.6002 19.7998 13.0946 19.2942C12.5891 18.7887 12.188 18.1885 11.9144 17.5279C11.6408 16.8674 11.5 16.1594 11.5 15.4444C11.5 14.0005 12.0736 12.6157 13.0946 11.5946C14.1157 10.5736 15.5005 10 16.9444 10C18.3884 10 19.7732 10.5736 20.7942 11.5946C21.8153 12.6157 22.3889 14.0005 22.3889 15.4444Z" stroke="#E65527" stroke-width="1.5" stroke-linecap="round" stroke-linejoin="round"/>
<rect x="1.5" y="1" width="32" height="32" rx="6" stroke="#E65527" stroke-opacity="0.1" stroke-width="2"/>
</svg>
